<svg data-cy="ic-hot-title" width="24" height="24" viewBox="0 0 24 24" xmlns="http://www.w3.org/2000/svg" class="sc-1x10e4w-1 bcIndF" style="fill: currentcolor; color: inherit; width: auto; height: 16px;">
<path d="M3 4.28571C3 3.57563 3.57563 3 4.28571 3H8.14286C8.85294 3 9.42857 3.57563 9.42857 4.28571V10.7143C9.42857 11.4244 8.85294 12 8.14286 12H4.28571C3.57563 12 3 11.4244 3 10.7143V4.28571Z"></path>
<path d="M12 12C12 11.2899 12.5756 10.7143 13.2857 10.7143H19.7143C20.4244 10.7143 21 11.2899 21 12V19.7143C21 20.4244 20.4244 21 19.7143 21H13.2857C12.5756 21 12 20.4244 12 19.7143V12Z"></path>
<path d="M3 15.8571C3 15.1471 3.57563 14.5714 4.28571 14.5714H8.14286C8.85294 14.5714 9.42857 15.1471 9.42857 15.8571V19.7143C9.42857 20.4244 8.85294 21 8.14286 21H4.28571C3.57563 21 3 20.4244 3 19.7143V15.8571Z"></path>
<path d="M12 4.28571C12 3.57563 12.5756 3 13.2857 3H19.7143C20.4244 3 21 3.57563 21 4.28571V6.85714C21 7.56722 20.4244 8.14286 19.7143 8.14286H13.2857C12.5756 8.14286 12 7.56722 12 6.85714V4.28571Z"></path>
</svg>
